<svg xmlns="http://www.w3.org/2000/svg"><symbol id="arrow_down" viewBox="0 0 10.813 6.542"><path d="M8.684.366L5.407 3.233 2.13.366A1.248 1.248 0 1 0 .366 2.131l3.151 2.757 1.891 1.654 1.89-1.654 3.151-2.757A1.249 1.249 0 0 0 8.684.366z"/></symbol><symbol id="arrow_left" viewBox="0 0 6.541 10.813"><path d="M6.176 8.683L3.309 5.407 6.176 2.13A1.248 1.248 0 1 0 4.411.366l-2.757 3.15L0 5.407l1.654 1.89 2.757 3.151a1.249 1.249 0 0 0 1.765-1.765z"/></symbol><symbol id="arrow_right" viewBox="0 0 6.541 10.813"><path d="M.365 10.448a1.249 1.249 0 0 0 1.765 0l2.757-3.151 1.654-1.89-1.654-1.891L2.13.365A1.249 1.249 0 0 0 .365 2.129l2.867 3.277L.365 8.683a1.249 1.249 0 0 0 0 1.765z"/></symbol><symbol id="arrow_up" viewBox="0 0 10.813 6.542"><path d="M10.448 6.176a1.249 1.249 0 0 0 0-1.765L7.297 1.654 5.407 0 3.516 1.654.365 4.411a1.249 1.249 0 0 0 1.764 1.765l3.277-2.867 3.277 2.867a1.249 1.249 0 0 0 1.765 0z"/></symbol><symbol id="catalog" viewBox="0 0 14 14"><path fill-rule="evenodd" clip-rule="evenodd" d="M10.938 4.375H4.812a.439.439 0 0 1-.438-.438v-.875c0-.241.196-.438.438-.438h6.125c.242 0 .438.196.438.438v.875a.438.438 0 0 1-.437.438m0 2.625H4.812a.438.438 0 0 1-.437-.438v-.874c0-.241.196-.438.438-.438h6.125c.242 0 .438.196.438.438v.875a.439.439 0 0 1-.438.437zm2.187-7h-10.5a.878.878 0 0 0-.875.875H.875C.394.875 0 1.269 0 1.75s.394.875.875.875h.875V3.5H.875C.394 3.5 0 3.894 0 4.375s.394.875.875.875h.875v.875H.875C.394 6.125 0 6.519 0 7s.394.875.875.875h.875v.875H.875c-.481 0-.875.394-.875.875s.394.875.875.875h.875v.875H.875c-.481 0-.875.394-.875.875s.394.875.875.875h.875c0 .481.394.875.875.875h10.5a.878.878 0 0 0 .875-.875V.875A.878.878 0 0 0 13.125 0z"/></symbol><symbol id="checkbox" viewBox="0 0 13 13"><path fill-rule="evenodd" clip-rule="evenodd" d="M1.733 0h9.533C12.224 0 13 .776 13 1.733v9.533c0 .958-.776 1.734-1.733 1.734H1.733A1.733 1.733 0 0 1 0 11.267V1.733C0 .776.776 0 1.733 0z"/></symbol><symbol id="checkbox_check" viewBox="0 0 7.923 5.979"><path d="M2.621 5.838a.505.505 0 0 0 .7 0l4.457-4.335a.473.473 0 0 0 0-.681l-.7-.681a.505.505 0 0 0-.7 0L2.971 3.454 1.546 2.066a.505.505 0 0 0-.7 0l-.701.683a.473.473 0 0 0 0 .681l2.476 2.408z"/></symbol><symbol id="close" viewBox="0 0 12.778 12.755"><path d="M9.228 6.388l3.549-3.55L9.939 0l-3.55 3.55L2.838 0 .021 2.816l3.551 3.551L0 9.939l2.838 2.839 3.573-3.573 3.551 3.55 2.816-2.816z"/></symbol><symbol id="download" viewBox="0 0 12 11"><path fill-rule="evenodd" clip-rule="evenodd" d="M10 11H0V6h2v3h8V6h2v5h-2zM3 3h2V0h2v3h2L6 7 3 3z"/></symbol><symbol id="galerijas" viewBox="0 0 16 16"><g fill-rule="evenodd" clip-rule="evenodd"><path d="M14 11h-1V4a1 1 0 0 0-1-1H5V2h9v9m-3 3H2V5h9v9zm4-14H4a1 1 0 0 0-1 1v2H1a1 1 0 0 0-1 1v11a1 1 0 0 0 1 1h11a1 1 0 0 0 1-1v-2h2a1 1 0 0 0 1-1V1a1 1 0 0 0-1-1z"/><path d="M3.5 13h6c.276 0 .5-.139.5-.432v-.267c0-.146-.175-.413-.391-.596l-4.218-3.58a.548.548 0 0 0-.745.045L3.354 9.541c-.196.207-.354.612-.354.905v2.122c0 .293.224.432.5.432M9.561 6.439a1.5 1.5 0 1 1-2.12 2.121 1.5 1.5 0 0 1 2.12-2.121"/></g></symbol><symbol id="home" viewBox="0 0 12 11"><path fill-rule="evenodd" clip-rule="evenodd" d="M11 6v5H7V8a1 1 0 0 0-2 0v3H1V6H0V5h1V4h1V3h1V2h1V1h1V0h2v1h1V0h2v4h1v1h1v1h-1z"/></symbol><symbol id="kalendars" viewBox="0 0 32 32"><path d="M29.334 3H25V1a1 1 0 1 0-2 0v2h-6V1a1 1 0 1 0-2 0v2H9V1a1 1 0 1 0-2 0v2H2.667A2.666 2.666 0 0 0 0 5.666v23.667A2.667 2.667 0 0 0 2.667 32h26.667A2.666 2.666 0 0 0 32 29.333V5.666A2.665 2.665 0 0 0 29.334 3zM30 29.333a.667.667 0 0 1-.666.667H2.667A.667.667 0 0 1 2 29.333V5.666C2 5.299 2.299 5 2.667 5H7v2a1 1 0 1 0 2 0V5h6v2a1 1 0 1 0 2 0V5h6v2a1 1 0 1 0 2 0V5h4.334c.367 0 .666.299.666.666v23.667z"/><path d="M7 12h4v3H7zM7 17h4v3H7zM7 22h4v3H7zM14 22h4v3h-4zM14 17h4v3h-4zM14 12h4v3h-4zM21 22h4v3h-4zM21 17h4v3h-4zM21 12h4v3h-4z"/></symbol><symbol id="kalendars2" viewBox="0 0 512 512"><path d="M357.784 369.481h-52.621v52.604h52.621v-52.604zm-74.14-140.786h-52.589v52.593h52.589v-52.593zm74.14 70.392h-52.621v52.598h52.621v-52.598zm74.073-70.392h-52.591v52.593h52.591v-52.593zm-148.213 70.392h-52.589v52.598h52.589v-52.598zm74.14-70.392h-52.621v52.593h52.621v-52.593zm74.073 70.392h-52.591v52.598h52.591v-52.598zm-296.415 70.394H82.847v52.604h52.595v-52.604zm0-70.394H82.847v52.598h52.595v-52.598zM418.325 43.264v23.088c9.073 8.028 14.823 19.728 14.823 32.795 0 24.192-19.619 43.813-43.815 43.813-24.204 0-43.814-19.621-43.814-43.813 0-13.072 5.748-24.77 14.824-32.795V43.264H155.619v23.088c9.074 8.028 14.823 19.728 14.823 32.795 0 24.192-19.618 43.813-43.815 43.813-24.201 0-43.814-19.621-43.814-43.813 0-13.072 5.75-24.77 14.823-32.795V43.264H.001v466.244h512V43.264h-93.676zm46.915 419.478H46.764V171.461H465.24v291.281zM209.575 228.695h-52.624v52.593h52.624v-52.593zm0 140.786h-52.624v52.604h52.624v-52.604zm74.069 0h-52.589v52.604h52.589v-52.604zm-74.069-70.394h-52.624v52.598h52.624v-52.598zm-82.946-174.414c12.045 0 21.811-9.762 21.811-21.807V24.302c0-12.039-9.766-21.809-21.811-21.809-12.047 0-21.812 9.771-21.812 21.809v78.564c0 12.044 9.765 21.807 21.812 21.807m262.706 0c12.043 0 21.811-9.762 21.811-21.807V24.302c0-12.039-9.768-21.809-21.811-21.809-12.046 0-21.813 9.771-21.813 21.809v78.564c-.002 12.044 9.765 21.807 21.813 21.807"/></symbol><symbol id="kategorijas" viewBox="0 0 15 10"><path fill-rule="evenodd" clip-rule="evenodd" d="M1.25 2.5H0V1.25C0 .56.56 0 1.25 0h2.5C4.44 0 5 .56 5 1.25h10V2.5H1.25zm12.5 7.5H1.25L0 3.75h15L13.75 10z"/></symbol><symbol id="klumes" viewBox="0 0 18.651 15.958"><path d="M18.17 13.637L10.486.481a1.642 1.642 0 0 0-2.322 0L.481 13.637a1.642 1.642 0 0 0 0 2.322H18.17a1.642 1.642 0 0 0 0-2.322zM8.618 5.204a.92.92 0 0 1 1.841 0V9.5a.92.92 0 1 1-1.841 0V5.204zm.926 8.291a.92.92 0 1 1 0-1.84.92.92 0 0 1 0 1.84z"/></symbol><symbol id="kopet" viewBox="0 0 13.989 14"><path d="M3.109 0v3.111H0V14h10.88v-3.111h3.109V0H3.109zm6.217 12.444H1.554V4.667h7.771v7.777zm3.108-3.111H10.88V3.111H4.663V1.556h7.771v7.777z"/></symbol><symbol id="kopne" viewBox="0 0 16 16"><path d="M1 16h2a1 1 0 0 0 1-1v-2a1 1 0 0 0-1-1H1a1 1 0 0 0-1 1v2a1 1 0 0 0 1 1M7 16h2a1 1 0 0 0 1-1v-2a1 1 0 0 0-1-1H7a1 1 0 0 0-1 1v2a1 1 0 0 0 1 1M13 16h2a1 1 0 0 0 1-1v-2a1 1 0 0 0-1-1h-2a1 1 0 0 0-1 1v2a1 1 0 0 0 1 1M1 4h2a1 1 0 0 0 1-1V1a1 1 0 0 0-1-1H1a1 1 0 0 0-1 1v2a1 1 0 0 0 1 1M7 4h2a1 1 0 0 0 1-1V1a1 1 0 0 0-1-1H7a1 1 0 0 0-1 1v2a1 1 0 0 0 1 1M12 1v2a1 1 0 0 0 1 1h2a1 1 0 0 0 1-1V1a1 1 0 0 0-1-1h-2a1 1 0 0 0-1 1M1 10h2a1 1 0 0 0 1-1V7a1 1 0 0 0-1-1H1a1 1 0 0 0-1 1v2a1 1 0 0 0 1 1M7 10h2a1 1 0 0 0 1-1V7a1 1 0 0 0-1-1H7a1 1 0 0 0-1 1v2a1 1 0 0 0 1 1M13 10h2a1 1 0 0 0 1-1V7a1 1 0 0 0-1-1h-2a1 1 0 0 0-1 1v2a1 1 0 0 0 1 1"/></symbol><symbol id="logout" viewBox="0 0 18 20"><path d="M0 10.714a9.026 9.026 0 0 1 2.054-5.758C3.07 3.709 4.058 3.109 4.146 3.053a1.362 1.362 0 0 1 1.895.511c.385.678.167 1.549-.488 1.95l-.003.001-.008.006c-.014.008-.038.025-.072.049a4.452 4.452 0 0 0-.308.232 6.854 6.854 0 0 0-.986.989c-.719.894-1.404 2.16-1.407 3.923 0 1.778.695 3.377 1.825 4.545C5.727 16.425 7.276 17.142 9 17.142c1.723 0 3.273-.717 4.405-1.883a6.508 6.508 0 0 0 1.826-4.545c-.003-1.709-.646-2.948-1.34-3.839a6.437 6.437 0 0 0-1.438-1.358l-.002-.001-.002-.001h-.001c-.654-.401-.873-1.272-.488-1.951a1.362 1.362 0 0 1 1.895-.511c.089.056 1.076.656 2.093 1.903A9.043 9.043 0 0 1 18 10.714c-.001 5.128-4.03 9.284-9 9.286-4.97-.002-8.999-4.158-9-9.286z"/><path d="M7.615 10V1.429C7.615.64 8.235 0 9 0c.764 0 1.384.64 1.384 1.429V10c0 .788-.621 1.428-1.385 1.428S7.615 10.789 7.615 10z"/></symbol><symbol id="mail" viewBox="0 0 14 12"><path d="M1.75 3.784l4.94 4.839c.17.167.448.167.618 0l4.941-4.839v6.502H1.75V3.784m10.138-2.07L7 6.502 2.112 1.714h9.776zM13.125 0H.875A.865.865 0 0 0 0 .857v10.286c0 .474.391.857.875.857h12.25a.865.865 0 0 0 .875-.857V.857A.865.865 0 0 0 13.125 0z"/></symbol><symbol id="parvietot" viewBox="0 0 11.979 12"><path d="M11.979 11.245V7.608c0-.415-.239-.515-.53-.222l-1.067 1.076-1.974-1.988a.762.762 0 0 1 0-1.068l1.934-1.949 1.106 1.115c.291.294.53.194.53-.221V.755A.753.753 0 0 0 11.229 0H7.663c-.412 0-.511.24-.22.534l1.069 1.078-1.933 1.949a.747.747 0 0 1-1.06 0L3.547 1.573 4.578.534C4.868.24 4.77 0 4.358 0H.749A.754.754 0 0 0 0 .755v3.637c0 .415.239.515.53.221l1.187-1.196L3.69 5.405a.763.763 0 0 1 0 1.069l-2.055 2.07L.53 7.429C.239 7.135 0 7.235 0 7.65v3.594c0 .416.337.756.749.756h3.566c.412 0 .511-.24.22-.534l-1.069-1.078 2.054-2.07a.748.748 0 0 1 1.06 0l1.972 1.988-1.15 1.159c-.292.295-.194.536.219.535h3.609c.411 0 .748-.34.749-.755z"/></symbol><symbol id="plus" viewBox="0 0 9 9"><path fill-rule="evenodd" clip-rule="evenodd" d="M9 6H6v3H3V6H0V3h3V0h3v3h3v3z"/></symbol><symbol id="profile" viewBox="0 0 18 7.183"><path d="M13.308 0A6.725 6.725 0 0 1 9 1.558 6.725 6.725 0 0 1 4.692 0C1.898.954 0 2.802 0 4.933v1.125c0 .622.504 1.125 1.125 1.125h15.75c.621 0 1.125-.504 1.125-1.125V4.933C18 2.802 16.103.954 13.308 0M9-.692a4.5 4.5 0 0 0 4.5-4.5v-1.125a4.5 4.5 0 0 0-9 0v1.125A4.5 4.5 0 0 0 9-.692"/></symbol><symbol id="random" viewBox="0 0 16 16"><path fill-rule="evenodd" clip-rule="evenodd" d="M4 8.501v-1C4 7.225 4.226 7 4.502 7h3.984L7.143 5.581a.525.525 0 0 1 0-.716l.685-.717a.47.47 0 0 1 .685 0l3.35 3.507a.526.526 0 0 1 0 .717l-3.323 3.48a.466.466 0 0 1-.684 0l-.685-.717a.525.525 0 0 1 0-.716L8.514 9H4.502A.501.501 0 0 1 4 8.501M0 8a8 8 0 1 0 16 0A8 8 0 0 0 0 8z"/></symbol><symbol id="registrs" viewBox="0 0 20 18"><path d="M17.021 0H2.979A2.983 2.983 0 0 0 0 2.979v12.042A2.983 2.983 0 0 0 2.979 18H17.02A2.983 2.983 0 0 0 20 15.021V2.979A2.983 2.983 0 0 0 17.021 0zM18 15.021a.98.98 0 0 1-.979.979H2.979A.98.98 0 0 1 2 15.021V2.979A.98.98 0 0 1 2.979 2H17.02a.98.98 0 0 1 .98.979v12.042z"/><path d="M5 5h10v2H5V5zM5 8h10v2H5V8zM5 11h10v2H5v-2z"/></symbol><symbol id="saturs" viewBox="0 0 18 22"><path d="M16 20H2V4h2v3h10V4h2v16M9 2c.55 0 1 .45 1 1s-.45 1-1 1-1-.45-1-1 .45-1 1-1zm7 0h-4.18C11.4.84 10.3 0 9 0S6.6.84 6.18 2H2C.9 2 0 2.9 0 4v16c0 1.1.9 2 2 2h14c1.1 0 2-.9 2-2V4c0-1.1-.9-2-2-2z"/><path d="M3.938 9.625h9.938v1.773H3.938zM3.938 12.676h9.938v1.773H3.938zM3.938 15.727h9.938V17.5H3.938z"/></symbol><symbol id="search" viewBox="0 0 13.054 13.054"><path d="M12.933 11.18l-2.277-2.277c.577-.9.916-1.968.916-3.117a5.786 5.786 0 1 0-5.786 5.786 5.752 5.752 0 0 0 3.116-.916l2.277 2.277c.161.16.424.16.584 0l1.169-1.169a.413.413 0 0 0 .001-.584zM5.786 9.919c-2.279 0-4.133-1.854-4.133-4.133s1.854-4.133 4.133-4.133 4.133 1.854 4.133 4.133-1.854 4.133-4.133 4.133z"/></symbol><symbol id="settings" viewBox="0 0 14.743 14.743"><path fill-rule="evenodd" clip-rule="evenodd" d="M13.561 8.887h-.781a5.571 5.571 0 0 1-.542 1.299l.722.722c.462.462.462 1.21 0 1.672l-.418.418a1.182 1.182 0 0 1-1.672 0l-.726-.726a5.656 5.656 0 0 1-1.294.532v.757c0 .653-.53 1.183-1.182 1.183h-.592a1.182 1.182 0 0 1-1.182-1.183v-.757a5.596 5.596 0 0 1-1.294-.533l-.726.726a1.182 1.182 0 0 1-1.672 0l-.418-.418a1.182 1.182 0 0 1 0-1.672l.722-.722a5.524 5.524 0 0 1-.543-1.298h-.781C.53 8.887 0 8.357 0 7.704v-.591c0-.653.53-1.182 1.182-1.182h.771c.122-.455.297-.888.523-1.29l-.693-.694a1.182 1.182 0 0 1 0-1.672l.418-.418a1.184 1.184 0 0 1 1.672 0l.68.68a5.56 5.56 0 0 1 1.34-.56v-.795A1.184 1.184 0 0 1 7.076 0h.591C8.32 0 8.85.53 8.85 1.182v.794a5.56 5.56 0 0 1 1.34.56l.68-.68a1.184 1.184 0 0 1 1.672 0l.418.418c.462.462.462 1.21 0 1.672l-.694.694c.226.402.401.834.523 1.29h.771c.653 0 1.182.529 1.182 1.182v.591a1.181 1.181 0 0 1-1.181 1.184zM7.372 4.176a3.252 3.252 0 1 0 0 6.504 3.252 3.252 0 0 0 0-6.504zm0 4.692a1.478 1.478 0 1 1 0-2.957 1.478 1.478 0 0 1 0 2.957z"/></symbol><symbol id="tagi" viewBox="0 0 16 16"><g fill-rule="evenodd" clip-rule="evenodd"><path d="M14 7.586l-6 6L2.414 8l6-6H14v5.586M8.086 0c-.276 0-.658.158-.854.354L.293 7.293a.999.999 0 0 0 0 1.414l7 7a.999.999 0 0 0 1.414 0l6.939-6.939c.196-.196.354-.578.354-.854V1a1 1 0 0 0-1-1H8.086z"/><path d="M10 7h1a1 1 0 0 0 1-1V5a1 1 0 0 0-1-1h-1a1 1 0 0 0-1 1v1a1 1 0 0 0 1 1"/></g></symbol><symbol id="tiesibas" viewBox="0 0 23 15"><path d="M15.682 8.571c-.303 0-.643.021-1.009.059 1.212.895 2.054 2.1 2.054 3.691V15H23v-2.679c0-2.496-4.877-3.75-7.318-3.75m-8.364 0C4.877 8.571 0 9.825 0 12.321V15h14.636v-2.679c0-2.496-4.877-3.75-7.318-3.75zm0-2.142c1.73 0 3.126-1.441 3.126-3.214S9.049 0 7.318 0c-1.73 0-3.136 1.441-3.136 3.214s1.406 3.215 3.136 3.215zm8.364 0c1.73 0 3.126-1.441 3.126-3.214S17.412 0 15.682 0s-3.136 1.441-3.136 3.214 1.406 3.215 3.136 3.215z"/></symbol><symbol id="trash" viewBox="0 0 14.769 15"><path fill-rule="evenodd" clip-rule="evenodd" d="M13.427 3.75v10c0 .69-.541 1.25-1.208 1.25H2.551c-.667 0-1.208-.56-1.208-1.25v-10H0V2.5h2.685V0H12.084v2.5h2.685v1.25h-1.342zM6.713 12.5h1.343V5H6.713v7.5zm-2.685 0h1.343V5H4.028v7.5zm6.713-11.25H4.028V2.5h6.713V1.25zm0 3.75H9.399v7.5h1.343V5z"/></symbol><symbol id="tulkojumi" viewBox="0 0 17.985 17.985"><path d="M8.992 17.985c-.424 0-.856-.03-1.32-.091C3.3 17.245 0 13.417 0 8.992 0 4.034 4.034 0 8.992 0a9.124 9.124 0 0 1 4.379 1.147 9.032 9.032 0 0 1 4.614 7.846 9.004 9.004 0 0 1-4.613 7.854 8.98 8.98 0 0 1-4.38 1.138zM7.436 12.53c.292 2.263.757 2.974 1.131 3.544l.166.256.327.001.161-.014.127-.138.069-.106c.374-.57.839-1.279 1.129-3.544l.048-.372H7.388l.048.373zm4.468-.091c-.167 1.116-.416 2.124-.738 2.995l-.252.68.679-.257c.308-.116.605-.253.893-.406a8.34 8.34 0 0 0 1.26-.869 6.25 6.25 0 0 1 .357-.28c.473-.355.918-.69 1.271-1.706l.152-.438h-3.58l-.042.281zm-6.531 2.933c.296.172.629.327 1.015.471l.677.253-.252-.677c-.322-.866-.568-1.869-.732-2.978l-.042-.282H2.37l.252.482c.552 1.057 1.347 1.881 2.493 2.58v.142l.258.009zm7.085-4.885h3.439c.271 0 .437-.072.437-1.495 0-1.426-.157-1.496-.435-1.496h-3.441v.661l-.323-.274c.012.117.023.762.023 1.109 0 .348-.01.992-.022 1.108l.323-.273v.66zM7.512 7.496c-.365 0-.365.142-.365 1.496s0 1.495.365 1.495h2.959c.365 0 .365-.141.365-1.495s0-1.496-.365-1.496H7.512zm-5.429 0c-.277 0-.435.07-.435 1.496 0 1.424.167 1.495.438 1.495h3.438v-.66l.325.273a21.47 21.47 0 0 1-.022-1.108c0-.347.008-.993.022-1.108l-.324.273v-.661H2.083zm9.086-4.934c.323.87.57 1.873.735 2.983l.042.282h3.741l-.357-.519c-.492-.713-1.839-2.448-3.734-3.17l-.681-.26.254.684zm-2.413-.897l-.119.139c-.389.599-.841 2.244-1.193 3.61l-.107.413h3.311l-.107-.413c-.353-1.367-.807-3.012-1.194-3.61l-.093-.143-.275-.013-.223.017zm-2.37.47c-1.898.725-3.243 2.461-3.734 3.174l-.356.518h3.743l.042-.282c.164-1.109.411-2.113.733-2.986l.252-.682-.68.258z"/></symbol></svg>