<?xml version="1.0" encoding="utf-8"?>
<!-- Generator: Adobe Illustrator 16.0.4, SVG Export Plug-In . SVG Version: 6.00 Build 0)  -->
<!DOCTYPE svg PUBLIC "-//W3C//DTD SVG 1.1//EN" "http://www.w3.org/Graphics/SVG/1.1/DTD/svg11.dtd">
<svg version="1.1" id="Layer_1" xmlns="http://www.w3.org/2000/svg" xmlns:xlink="http://www.w3.org/1999/xlink" x="0px" y="0px"
	 width="14px" height="14px" viewBox="0 0 14 14" enable-background="new 0 0 14 14" xml:space="preserve">
<path fill-rule="evenodd" clip-rule="evenodd" d="M10.938,4.375H4.812c-0.241,0-0.438-0.196-0.438-0.438V3.062
	c0-0.241,0.196-0.438,0.438-0.438h6.125c0.242,0,0.438,0.196,0.438,0.438v0.875C11.375,4.179,11.179,4.375,10.938,4.375 M10.938,7
	H4.812C4.571,7,4.375,6.804,4.375,6.562V5.688c0-0.241,0.196-0.438,0.438-0.438h6.125c0.242,0,0.438,0.196,0.438,0.438v0.875
	C11.375,6.804,11.179,7,10.938,7z M13.125,0h-10.5C2.144,0,1.75,0.394,1.75,0.875H0.875C0.394,0.875,0,1.269,0,1.75
	s0.394,0.875,0.875,0.875H1.75V3.5H0.875C0.394,3.5,0,3.894,0,4.375S0.394,5.25,0.875,5.25H1.75v0.875H0.875
	C0.394,6.125,0,6.519,0,7s0.394,0.875,0.875,0.875H1.75V8.75H0.875C0.394,8.75,0,9.144,0,9.625S0.394,10.5,0.875,10.5H1.75v0.875
	H0.875C0.394,11.375,0,11.769,0,12.25s0.394,0.875,0.875,0.875H1.75C1.75,13.606,2.144,14,2.625,14h10.5
	C13.606,14,14,13.606,14,13.125V0.875C14,0.394,13.606,0,13.125,0z"/>
</svg>
