<?xml version="1.0" encoding="utf-8"?>
<!-- Generator: Adobe Illustrator 16.0.4, SVG Export Plug-In . SVG Version: 6.00 Build 0)  -->
<!DOCTYPE svg PUBLIC "-//W3C//DTD SVG 1.1//EN" "http://www.w3.org/Graphics/SVG/1.1/DTD/svg11.dtd">
<svg version="1.1" id="Layer_1" xmlns="http://www.w3.org/2000/svg" xmlns:xlink="http://www.w3.org/1999/xlink" x="0px" y="0px"
	 width="16px" height="16px" viewBox="0 0 16 16" enable-background="new 0 0 16 16" xml:space="preserve">
<g>
	<path fill-rule="evenodd" clip-rule="evenodd" d="M14,11h-1V4c0-0.553-0.447-1-1-1H5V2h9V11 M11,14H2V5h9V14z M15,0H4
		C3.447,0,3,0.447,3,1v2H1C0.447,3,0,3.447,0,4v11c0,0.553,0.447,1,1,1h11c0.553,0,1-0.447,1-1v-2h2c0.553,0,1-0.447,1-1V1
		C16,0.447,15.553,0,15,0z"/>
	<path fill-rule="evenodd" clip-rule="evenodd" d="M3.5,13h6c0.276,0,0.5-0.139,0.5-0.432c0,0,0-0.119,0-0.267
		c0-0.146-0.175-0.413-0.391-0.596L5.391,8.125C5.175,7.942,4.842,7.962,4.646,8.17L3.354,9.541C3.158,9.748,3,10.153,3,10.446
		v2.122C3,12.861,3.224,13,3.5,13"/>
	<path fill-rule="evenodd" clip-rule="evenodd" d="M9.561,6.439c0.586,0.585,0.586,1.536,0,2.121c-0.586,0.586-1.535,0.586-2.121,0
		c-0.586-0.585-0.586-1.536,0-2.121C8.025,5.854,8.975,5.854,9.561,6.439"/>
</g>
</svg>
