<?xml version="1.0" encoding="utf-8"?>
<!-- Generator: Adobe Illustrator 16.0.4, SVG Export Plug-In . SVG Version: 6.00 Build 0)  -->
<!DOCTYPE svg PUBLIC "-//W3C//DTD SVG 1.1//EN" "http://www.w3.org/Graphics/SVG/1.1/DTD/svg11.dtd">
<svg version="1.1" id="Layer_1" xmlns="http://www.w3.org/2000/svg" xmlns:xlink="http://www.w3.org/1999/xlink" x="0px" y="0px"
	 width="18.651px" height="15.958px" viewBox="0 0 18.651 15.958" enable-background="new 0 0 18.651 15.958" xml:space="preserve">
<path d="M18.17,13.637L10.486,0.481c-0.641-0.641-1.681-0.641-2.322,0L0.481,13.637c-0.641,0.641-0.641,1.68,0,2.322H18.17
	C18.811,15.317,18.811,14.278,18.17,13.637z M8.618,5.204c0-0.508,0.412-0.92,0.921-0.92c0.508,0,0.92,0.412,0.92,0.92V9.5
	c0,0.509-0.412,0.921-0.92,0.921c-0.509,0-0.921-0.412-0.921-0.921V5.204z M9.544,13.495c-0.508,0-0.92-0.412-0.92-0.92
	c0-0.509,0.412-0.921,0.92-0.921s0.92,0.412,0.92,0.921C10.464,13.083,10.052,13.495,9.544,13.495z"/>
</svg>
