<?xml version="1.0" encoding="utf-8"?>
<!-- Generator: Adobe Illustrator 16.0.4, SVG Export Plug-In . SVG Version: 6.00 Build 0)  -->
<!DOCTYPE svg PUBLIC "-//W3C//DTD SVG 1.1//EN" "http://www.w3.org/Graphics/SVG/1.1/DTD/svg11.dtd">
<svg version="1.1" id="Layer_1" xmlns="http://www.w3.org/2000/svg" xmlns:xlink="http://www.w3.org/1999/xlink" x="0px" y="0px"
	 width="16px" height="16px" viewBox="0 0 16 16" enable-background="new 0 0 16 16" xml:space="preserve">
<g>
	<path d="M1,16h2c0.552,0,1-0.448,1-1v-2c0-0.552-0.448-1-1-1H1c-0.552,0-1,0.448-1,1v2C0,15.552,0.448,16,1,16"/>
	<path d="M7,16h2c0.553,0,1-0.448,1-1v-2c0-0.552-0.447-1-1-1H7c-0.552,0-1,0.448-1,1v2C6,15.552,6.448,16,7,16"/>
	<path d="M13,16h2c0.553,0,1-0.448,1-1v-2c0-0.552-0.447-1-1-1h-2c-0.553,0-1,0.448-1,1v2C12,15.552,12.447,16,13,16"/>
	<path d="M1,4h2c0.552,0,1-0.448,1-1V1c0-0.552-0.448-1-1-1H1C0.448,0,0,0.448,0,1v2C0,3.552,0.448,4,1,4"/>
	<path d="M7,4h2c0.553,0,1-0.448,1-1V1c0-0.552-0.447-1-1-1H7C6.448,0,6,0.448,6,1v2C6,3.552,6.448,4,7,4"/>
	<path d="M12,1v2c0,0.552,0.447,1,1,1h2c0.553,0,1-0.448,1-1V1c0-0.552-0.447-1-1-1h-2C12.447,0,12,0.448,12,1"/>
	<path d="M1,10h2c0.552,0,1-0.448,1-1V7c0-0.552-0.448-1-1-1H1C0.448,6,0,6.448,0,7v2C0,9.552,0.448,10,1,10"/>
	<path d="M7,10h2c0.553,0,1-0.448,1-1V7c0-0.552-0.447-1-1-1H7C6.448,6,6,6.448,6,7v2C6,9.552,6.448,10,7,10"/>
	<path d="M13,10h2c0.553,0,1-0.448,1-1V7c0-0.552-0.447-1-1-1h-2c-0.553,0-1,0.448-1,1v2C12,9.552,12.447,10,13,10"/>
</g>
</svg>
