<?xml version="1.0" encoding="utf-8"?>
<!-- Generator: Adobe Illustrator 16.0.4, SVG Export Plug-In . SVG Version: 6.00 Build 0)  -->
<!DOCTYPE svg PUBLIC "-//W3C//DTD SVG 1.1//EN" "http://www.w3.org/Graphics/SVG/1.1/DTD/svg11.dtd">
<svg version="1.1" id="Layer_1" xmlns="http://www.w3.org/2000/svg" xmlns:xlink="http://www.w3.org/1999/xlink" x="0px" y="0px"
	 width="18px" height="20px" viewBox="0 0 18 20" enable-background="new 0 0 18 20" xml:space="preserve">
<g>
	<path d="M0,10.714C-0.003,8.14,1.043,6.192,2.054,4.956l0,0C3.07,3.709,4.058,3.109,4.146,3.053l0,0
		c0.66-0.398,1.508-0.17,1.895,0.511l0,0c0.385,0.678,0.167,1.549-0.488,1.95l0,0v0c0,0,0,0-0.003,0.001l0,0
		C5.548,5.517,5.545,5.519,5.542,5.521l0,0C5.528,5.529,5.504,5.546,5.47,5.57l0,0C5.401,5.616,5.294,5.695,5.162,5.802l0,0
		C4.897,6.017,4.534,6.35,4.176,6.791l0,0c-0.719,0.894-1.404,2.16-1.407,3.923l0,0c0,1.778,0.695,3.377,1.825,4.545l0,0
		C5.727,16.425,7.276,17.142,9,17.142l0,0c1.723,0,3.273-0.717,4.405-1.883l0,0c1.13-1.168,1.825-2.767,1.826-4.545l0,0
		c-0.003-1.709-0.646-2.948-1.34-3.839l0,0c-0.661-0.844-1.368-1.314-1.438-1.358l0,0c-0.001,0-0.002-0.001-0.002-0.001l0,0
		c-0.001-0.001-0.001-0.001-0.002-0.001l0,0c0,0-0.001,0-0.001,0l0,0l0,0c-0.654-0.401-0.873-1.272-0.488-1.951l0,0
		c0.387-0.681,1.235-0.909,1.895-0.511l0,0c0.089,0.056,1.076,0.656,2.093,1.903l0,0C16.957,6.192,18.002,8.14,18,10.714l0,0
		c-0.001,5.128-4.03,9.284-9,9.286l0,0C4.03,19.998,0.001,15.842,0,10.714L0,10.714z"/>
	<path d="M7.615,10V5.714V1.429C7.615,0.64,8.235,0,9,0l0,0c0.764,0,1.384,0.64,1.384,1.429l0,0v4.286V10h0
		c0,0.788-0.621,1.428-1.385,1.428l0,0C8.235,11.428,7.615,10.789,7.615,10L7.615,10z"/>
</g>
</svg>
