<?xml version="1.0" encoding="utf-8"?>
<!-- Generator: Adobe Illustrator 16.0.4, SVG Export Plug-In . SVG Version: 6.00 Build 0)  -->
<!DOCTYPE svg PUBLIC "-//W3C//DTD SVG 1.1//EN" "http://www.w3.org/Graphics/SVG/1.1/DTD/svg11.dtd">
<svg version="1.1" id="Layer_1" xmlns="http://www.w3.org/2000/svg" xmlns:xlink="http://www.w3.org/1999/xlink" x="0px" y="0px"
	 width="11.979px" height="12px" viewBox="0 0 11.979 12" enable-background="new 0 0 11.979 12" xml:space="preserve">
<path d="M11.979,11.245V7.608c0-0.415-0.239-0.515-0.53-0.222l-1.067,1.076L8.408,6.474c-0.291-0.294-0.291-0.774,0-1.068
	l1.934-1.949l1.106,1.115c0.291,0.294,0.53,0.194,0.53-0.221V0.755C11.979,0.34,11.642,0,11.229,0H7.663
	c-0.412,0-0.511,0.24-0.22,0.534l1.069,1.078L6.579,3.561c-0.291,0.294-0.768,0.294-1.06,0L3.547,1.573l1.031-1.039
	C4.868,0.24,4.77,0,4.358,0H0.749C0.337,0,0,0.34,0,0.755v3.637c0,0.415,0.239,0.515,0.53,0.221l1.187-1.196l1.973,1.988
	c0.291,0.294,0.292,0.774,0,1.069L1.635,8.544L0.53,7.429C0.239,7.135,0,7.235,0,7.65v3.594C0,11.66,0.337,12,0.749,12h3.566
	c0.412,0,0.511-0.24,0.22-0.534l-1.069-1.078l2.054-2.07c0.291-0.294,0.768-0.293,1.06,0l1.972,1.988l-1.15,1.159
	C7.11,11.76,7.208,12.001,7.621,12h3.609C11.641,12,11.978,11.66,11.979,11.245z"/>
</svg>
