<?xml version="1.0" encoding="utf-8"?>
<!-- Generator: Adobe Illustrator 16.0.4, SVG Export Plug-In . SVG Version: 6.00 Build 0)  -->
<!DOCTYPE svg PUBLIC "-//W3C//DTD SVG 1.1//EN" "http://www.w3.org/Graphics/SVG/1.1/DTD/svg11.dtd">
<svg version="1.1" id="Layer_1" xmlns="http://www.w3.org/2000/svg" xmlns:xlink="http://www.w3.org/1999/xlink" x="0px" y="0px"
	 width="18px" height="7.183px" viewBox="0 0 18 7.183" enable-background="new 0 0 18 7.183" xml:space="preserve">
<path d="M13.308,0C12.138,0.971,10.637,1.558,9,1.558C7.363,1.558,5.862,0.971,4.692,0C1.898,0.954,0,2.802,0,4.933v1.125
	c0,0.622,0.504,1.125,1.125,1.125h15.75C17.496,7.183,18,6.679,18,6.058V4.933C18,2.802,16.103,0.954,13.308,0"/>
<path d="M9-0.692c2.485,0,4.5-2.015,4.5-4.5v-1.125c0-2.485-2.015-4.5-4.5-4.5s-4.5,2.015-4.5,4.5v1.125
	C4.5-2.707,6.515-0.692,9-0.692"/>
</svg>
