<?xml version="1.0" encoding="utf-8"?>
<!-- Generator: Adobe Illustrator 16.0.4, SVG Export Plug-In . SVG Version: 6.00 Build 0)  -->
<!DOCTYPE svg PUBLIC "-//W3C//DTD SVG 1.1//EN" "http://www.w3.org/Graphics/SVG/1.1/DTD/svg11.dtd">
<svg version="1.1" id="Layer_1" xmlns="http://www.w3.org/2000/svg" xmlns:xlink="http://www.w3.org/1999/xlink" x="0px" y="0px"
	 width="16px" height="16px" viewBox="0 0 16 16" enable-background="new 0 0 16 16" xml:space="preserve">
<g>
	<path fill-rule="evenodd" clip-rule="evenodd" d="M4,8.501v-1C4,7.225,4.226,7,4.502,7h3.984L7.143,5.581
		c-0.188-0.199-0.188-0.519,0-0.716l0.685-0.717c0.188-0.197,0.495-0.197,0.685,0l3.35,3.507c0.188,0.199,0.188,0.52,0,0.717
		L8.54,11.852c-0.19,0.199-0.496,0.199-0.684,0l-0.685-0.717c-0.188-0.196-0.188-0.519,0-0.716L8.514,9H4.502
		C4.226,9,4,8.777,4,8.501 M0,8c0,4.418,3.582,8,8,8s8-3.582,8-8s-3.582-8-8-8S0,3.582,0,8z"/>
</g>
</svg>
