<?xml version="1.0" encoding="utf-8"?>
<!-- Generator: Adobe Illustrator 16.0.4, SVG Export Plug-In . SVG Version: 6.00 Build 0)  -->
<!DOCTYPE svg PUBLIC "-//W3C//DTD SVG 1.1//EN" "http://www.w3.org/Graphics/SVG/1.1/DTD/svg11.dtd">
<svg version="1.1" id="Layer_1" xmlns="http://www.w3.org/2000/svg" xmlns:xlink="http://www.w3.org/1999/xlink" x="0px" y="0px"
	 width="20px" height="18px" viewBox="0 0 20 18" enable-background="new 0 0 20 18" xml:space="preserve">
<g>
	<path d="M17.021,0H2.979C1.337,0,0,1.337,0,2.979v12.042C0,16.663,1.337,18,2.979,18H17.02c1.643,0,2.98-1.337,2.98-2.979V2.979
		C20,1.337,18.663,0,17.021,0z M18,15.021C18,15.561,17.561,16,17.021,16H2.979C2.439,16,2,15.561,2,15.021V2.979
		C2,2.439,2.439,2,2.979,2H17.02C17.561,2,18,2.439,18,2.979V15.021z"/>
	<path d="M5,5h10v2H5V5z"/>
	<path d="M5,8h10v2H5V8z"/>
	<path d="M5,11h10v2H5V11z"/>
</g>
</svg>
