<?xml version="1.0" encoding="utf-8"?>
<!-- Generator: Adobe Illustrator 16.0.4, SVG Export Plug-In . SVG Version: 6.00 Build 0)  -->
<!DOCTYPE svg PUBLIC "-//W3C//DTD SVG 1.1//EN" "http://www.w3.org/Graphics/SVG/1.1/DTD/svg11.dtd">
<svg version="1.1" id="Layer_1" xmlns="http://www.w3.org/2000/svg" xmlns:xlink="http://www.w3.org/1999/xlink" x="0px" y="0px"
	 width="18px" height="22px" viewBox="0 0 18 22" enable-background="new 0 0 18 22" xml:space="preserve">
<g>
	<path d="M16,20H2V4h2v3h10V4h2V20 M9,2c0.55,0,1,0.45,1,1S9.55,4,9,4S8,3.55,8,3S8.45,2,9,2z M16,2h-4.18C11.4,0.84,10.3,0,9,0
		S6.6,0.84,6.18,2H2C0.9,2,0,2.9,0,4v16c0,1.1,0.9,2,2,2h14c1.1,0,2-0.9,2-2V4C18,2.9,17.1,2,16,2z"/>
</g>
<rect x="3.938" y="9.625" width="9.938" height="1.773"/>
<rect x="3.938" y="12.676" width="9.938" height="1.773"/>
<rect x="3.938" y="15.727" width="9.938" height="1.773"/>
</svg>
