<?xml version="1.0" encoding="utf-8"?>
<svg version="1.1" id="svg_icon_search" xmlns="http://www.w3.org/2000/svg" xmlns:xlink="http://www.w3.org/1999/xlink" x="0px" y="0px"
	 width="13.054px" height="13.054px" viewBox="0 0 13.054 13.054" enable-background="new 0 0 13.054 13.054" xml:space="preserve"
	 fill="#37b1a7"
	 >
<path d="M12.933,11.18l-2.277-2.277c0.577-0.9,0.916-1.968,0.916-3.117C11.572,2.591,8.982,0,5.786,0S0,2.591,0,5.786
	c0,3.196,2.59,5.786,5.786,5.786c1.149,0,2.216-0.339,3.116-0.916l2.277,2.277c0.161,0.16,0.424,0.16,0.584,0l1.169-1.169
	C13.094,11.603,13.094,11.34,12.933,11.18z M5.786,9.919c-2.279,0-4.133-1.854-4.133-4.133s1.854-4.133,4.133-4.133
	s4.133,1.854,4.133,4.133S8.065,9.919,5.786,9.919z"/>
</svg>
