<?xml version="1.0" encoding="utf-8"?>
<!-- Generator: Adobe Illustrator 16.0.4, SVG Export Plug-In . SVG Version: 6.00 Build 0)  -->
<!DOCTYPE svg PUBLIC "-//W3C//DTD SVG 1.1//EN" "http://www.w3.org/Graphics/SVG/1.1/DTD/svg11.dtd">
<svg version="1.1" id="Layer_1" xmlns="http://www.w3.org/2000/svg" xmlns:xlink="http://www.w3.org/1999/xlink" x="0px" y="0px"
	 width="14.743px" height="14.743px" viewBox="0 0 14.743 14.743" enable-background="new 0 0 14.743 14.743" xml:space="preserve">
<path fill-rule="evenodd" clip-rule="evenodd" d="M13.561,8.887h-0.781c-0.127,0.459-0.309,0.895-0.542,1.299l0.722,0.722
	c0.462,0.462,0.462,1.21,0,1.672l-0.418,0.418c-0.462,0.462-1.211,0.462-1.672,0l-0.726-0.726C9.741,12.5,9.307,12.679,8.85,12.804
	v0.757c0,0.653-0.53,1.183-1.182,1.183H7.076c-0.653,0-1.182-0.529-1.182-1.183v-0.757C5.437,12.679,5.002,12.5,4.6,12.271
	l-0.726,0.726c-0.462,0.462-1.21,0.462-1.672,0l-0.418-0.418c-0.462-0.462-0.462-1.21,0-1.672l0.722-0.722
	C2.272,9.781,2.09,9.346,1.963,8.887H1.182C0.53,8.887,0,8.357,0,7.704V7.113C0,6.46,0.53,5.931,1.182,5.931h0.771
	c0.122-0.455,0.297-0.888,0.523-1.29L1.783,3.947c-0.462-0.462-0.462-1.21,0-1.672l0.418-0.418c0.462-0.461,1.21-0.461,1.672,0
	l0.68,0.68c0.416-0.242,0.865-0.431,1.34-0.56V1.182C5.894,0.53,6.423,0,7.076,0h0.591C8.32,0,8.85,0.53,8.85,1.182v0.794
	c0.475,0.129,0.924,0.318,1.34,0.56l0.68-0.68c0.462-0.461,1.21-0.461,1.672,0l0.418,0.418c0.462,0.462,0.462,1.21,0,1.672
	l-0.694,0.694c0.226,0.402,0.401,0.834,0.523,1.29h0.771c0.653,0,1.182,0.529,1.182,1.182v0.591
	C14.743,8.357,14.214,8.887,13.561,8.887z M7.372,4.176c-1.796,0-3.252,1.456-3.252,3.251s1.456,3.252,3.252,3.252
	s3.251-1.456,3.251-3.252S9.168,4.176,7.372,4.176z M7.372,8.868c-0.816,0-1.478-0.662-1.478-1.478c0-0.816,0.662-1.478,1.478-1.478
	S8.85,6.574,8.85,7.39C8.85,8.206,8.188,8.868,7.372,8.868z"/>
</svg>
