<?xml version="1.0" encoding="utf-8"?>
<!-- Generator: Adobe Illustrator 16.0.4, SVG Export Plug-In . SVG Version: 6.00 Build 0)  -->
<!DOCTYPE svg PUBLIC "-//W3C//DTD SVG 1.1//EN" "http://www.w3.org/Graphics/SVG/1.1/DTD/svg11.dtd">
<svg version="1.1" id="Layer_1" xmlns="http://www.w3.org/2000/svg" xmlns:xlink="http://www.w3.org/1999/xlink" x="0px" y="0px"
	 width="23px" height="15px" viewBox="0 0 23 15" enable-background="new 0 0 23 15" xml:space="preserve">
<g>
	<path d="M15.682,8.571c-0.303,0-0.643,0.021-1.009,0.059c1.212,0.895,2.054,2.1,2.054,3.691V15H23v-2.679
		C23,9.825,18.123,8.571,15.682,8.571 M7.318,8.571C4.877,8.571,0,9.825,0,12.321V15h14.636v-2.679
		C14.636,9.825,9.759,8.571,7.318,8.571z M7.318,6.429c1.73,0,3.126-1.441,3.126-3.214S9.049,0,7.318,0
		c-1.73,0-3.136,1.441-3.136,3.214S5.588,6.429,7.318,6.429z M15.682,6.429c1.73,0,3.126-1.441,3.126-3.214S17.412,0,15.682,0
		s-3.136,1.441-3.136,3.214S13.952,6.429,15.682,6.429z"/>
</g>
</svg>
