<?xml version="1.0" encoding="utf-8"?>
<!-- Generator: Adobe Illustrator 16.0.4, SVG Export Plug-In . SVG Version: 6.00 Build 0)  -->
<!DOCTYPE svg PUBLIC "-//W3C//DTD SVG 1.1//EN" "http://www.w3.org/Graphics/SVG/1.1/DTD/svg11.dtd">
<svg version="1.1" id="Layer_1" xmlns="http://www.w3.org/2000/svg" xmlns:xlink="http://www.w3.org/1999/xlink" x="0px" y="0px"
	 width="14.769px" height="15px" viewBox="0 0 14.769 15" enable-background="new 0 0 14.769 15" xml:space="preserve">
<path fill-rule="evenodd" clip-rule="evenodd" d="M13.427,3.75v10c0,0.69-0.541,1.25-1.208,1.25h-0.134H2.685H2.551
	c-0.667,0-1.208-0.56-1.208-1.25v-10H0V2.5h1.343h1.208h0.134V1.25V0h1.343h6.713h1.343v1.25V2.5h0.134h1.208h1.343v1.25H13.427z
	 M6.713,12.5h1.343V5H6.713V12.5z M4.028,12.5h1.343V5H4.028V12.5z M10.741,1.25H4.028V2.5h6.713V1.25z M10.741,5H9.399v7.5h1.343V5
	z"/>
</svg>
