<?xml version="1.0" encoding="utf-8"?>
<!-- Generator: Adobe Illustrator 16.0.4, SVG Export Plug-In . SVG Version: 6.00 Build 0)  -->
<!DOCTYPE svg PUBLIC "-//W3C//DTD SVG 1.1//EN" "http://www.w3.org/Graphics/SVG/1.1/DTD/svg11.dtd">
<svg version="1.1" id="Layer_1" xmlns="http://www.w3.org/2000/svg" xmlns:xlink="http://www.w3.org/1999/xlink" x="0px" y="0px"
	 width="17.985px" height="17.985px" viewBox="0 0 17.985 17.985" enable-background="new 0 0 17.985 17.985" xml:space="preserve">
<path d="M8.992,17.985c-0.424,0-0.856-0.03-1.32-0.091C3.3,17.245,0,13.417,0,8.992C0,4.034,4.034,0,8.992,0
	c1.543,0.011,3.058,0.408,4.379,1.147c2.835,1.584,4.602,4.59,4.614,7.846c0,3.256-1.768,6.266-4.613,7.854
	C12.044,17.591,10.529,17.985,8.992,17.985z M7.436,12.53c0.292,2.263,0.757,2.974,1.131,3.544l0.166,0.256l0.327,0.001l0.161-0.014
	l0.127-0.138l0.069-0.106c0.374-0.57,0.839-1.279,1.129-3.544l0.048-0.372H7.388L7.436,12.53z M11.904,12.439
	c-0.167,1.116-0.416,2.124-0.738,2.995l-0.252,0.68l0.679-0.257c0.308-0.116,0.605-0.253,0.893-0.406
	c0.455-0.256,0.876-0.548,1.26-0.869c0.124-0.106,0.242-0.195,0.357-0.28c0.473-0.355,0.918-0.69,1.271-1.706l0.152-0.438h-3.58
	L11.904,12.439z M5.373,15.372c0.296,0.172,0.629,0.327,1.015,0.471l0.677,0.253l-0.252-0.677c-0.322-0.866-0.568-1.869-0.732-2.978
	l-0.042-0.282H2.37l0.252,0.482c0.552,1.057,1.347,1.881,2.493,2.58v0.142L5.373,15.372z M12.458,10.487h3.439
	c0.271,0,0.437-0.072,0.437-1.495c0-1.426-0.157-1.496-0.435-1.496h-3.441v0.661l-0.323-0.274C12.147,8,12.158,8.645,12.158,8.992
	c0,0.348-0.01,0.992-0.022,1.108l0.323-0.273V10.487z M7.512,7.496c-0.365,0-0.365,0.142-0.365,1.496s0,1.495,0.365,1.495h2.959
	c0.365,0,0.365-0.141,0.365-1.495s0-1.496-0.365-1.496H7.512z M2.083,7.496c-0.277,0-0.435,0.07-0.435,1.496
	c0,1.424,0.167,1.495,0.438,1.495h3.438v-0.66L5.849,10.1C5.835,9.984,5.827,9.34,5.827,8.992c0-0.347,0.008-0.993,0.022-1.108
	L5.525,8.157V7.496H2.083z M11.169,2.562c0.323,0.87,0.57,1.873,0.735,2.983l0.042,0.282h3.741L15.33,5.308
	c-0.492-0.713-1.839-2.448-3.734-3.17l-0.681-0.26L11.169,2.562z M8.756,1.665L8.637,1.804c-0.389,0.599-0.841,2.244-1.193,3.61
	L7.337,5.827h3.311l-0.107-0.413c-0.353-1.367-0.807-3.012-1.194-3.61L9.254,1.661L8.979,1.648L8.756,1.665z M6.386,2.135
	C4.488,2.86,3.143,4.596,2.652,5.309L2.296,5.827h3.743l0.042-0.282c0.164-1.109,0.411-2.113,0.733-2.986l0.252-0.682L6.386,2.135z"
	/>
</svg>
